{
  "accessors": [
    {
      "bufferView": 1,
      "componentType": 5126,
      "count": 1433,
      "max": [
        12.527999877929688,
        -25.833799362182617,
        -29.85770034790039
      ],
      "min": [
        -14.527999877929688,
        -33.83890151977539,
        -33.19770050048828
      ],
      "type": "VEC3"
    },
    {
      "bufferView": 1,
      "byteOffset": 17196,
      "componentType": 5126,
      "count": 1433,
      "max": [
        1.0,
        0.5837281942367554,
        0.9985343813896179
      ],
      "min": [
        -1.0,
        -0.9121216535568237,
        -0.985967218875885
      ],
      "type": "VEC3"
    },
    {
      "bufferView": 0,
      "componentType": 5125,
      "count": 5838,
      "type": "SCALAR"
    },
    {
      "bufferView": 1,
      "byteOffset": 34392,
      "componentType": 5126,
      "count": 1566,
      "max": [
        13.039999961853027,
        -27.25,
        -29.83799934387207
      ],
      "min": [
        -15.039999961853027,
        -35.327999114990234,
        -34.0
      ],
      "type": "VEC3"
    },
    {
      "bufferView": 1,
      "byteOffset": 53184,
      "componentType": 5126,
      "count": 1566,
      "max": [
        0.9930034875869751,
        0.9919725656509399,
        1.0
      ],
      "min": [
        -0.9934002757072449,
        -0.9999629259109497,
        -1.0
      ],
      "type": "VEC3"
    },
    {
      "bufferView": 0,
      "byteOffset": 23352,
      "componentType": 5125,
      "count": 6582,
      "type": "SCALAR"
    },
    {
      "bufferView": 1,
      "byteOffset": 71976,
      "componentType": 5126,
      "count": 2092,
      "max": [
        37.0,
        -5.0,
        5.0
      ],
      "min": [
        -36.0,
        -37.0,
        -35.0
      ],
      "type": "VEC3"
    },
    {
      "bufferView": 1,
      "byteOffset": 97080,
      "componentType": 5126,
      "count": 2092,
      "max": [
        1.0,
        1.0,
        0.9996764063835144
      ],
      "min": [
        -1.0,
        -1.0,
        -0.9984374642372131
      ],
      "type": "VEC3"
    },
    {
      "bufferView": 0,
      "byteOffset": 49680,
      "componentType": 5125,
      "count": 7887,
      "type": "SCALAR"
    },
    {
      "bufferView": 1,
      "byteOffset": 122184,
      "componentType": 5126,
      "count": 3132,
      "max": [
        22.707000732421875,
        -12.0,
        15.871999740600586
      ],
      "min": [
        -25.044300079345703,
        -48.0,
        -39.0
      ],
      "type": "VEC3"
    },
    {
      "bufferView": 1,
      "byteOffset": 159768,
      "componentType": 5126,
      "count": 3132,
      "max": [
        0.9998451471328735,
        0.9993903040885925,
        0.9994477033615112
      ],
      "min": [
        -0.9999695420265198,
        -1.0,
        -0.9996873736381531
      ],
      "type": "VEC3"
    },
    {
      "bufferView": 0,
      "byteOffset": 81228,
      "componentType": 5125,
      "count": 11355,
      "type": "SCALAR"
    }
  ],
  "asset": {
    "extras": {
      "author": "qtsamo (https://sketchfab.com/qtsamo)",
      "license": "CC-BY-4.0 (http://creativecommons.org/licenses/by/4.0/)",
      "source": "https://sketchfab.com/3d-models/blob-a01d53ddc5444f73906ede12b7e86c53",
      "title": "blob"
    },
    "generator": "Sketchfab-11.87.0",
    "version": "2.0"
  },
  "bufferViews": [
    {
      "buffer": 0,
      "byteLength": 126648,
      "name": "floatBufferViews",
      "target": 34963
    },
    {
      "buffer": 0,
      "byteLength": 197352,
      "byteOffset": 126648,
      "byteStride": 12,
      "name": "floatBufferViews",
      "target": 34962
    }
  ],
  "buffers": [
    {
      "byteLength": 324000,
      "uri": "scene.bin"
    }
  ],
  "materials": [
    {
      "doubleSided": true,
      "name": "color_16448250",
      "pbrMetallicRoughness": {
        "baseColorFactor": [
          0.980392,
          0.980392,
          0.980392,
          1.0
        ],
        "metallicFactor": 0.0
      }
    },
    {
      "doubleSided": true,
      "name": "color_2829873",
      "pbrMetallicRoughness": {
        "baseColorFactor": [
          0.168627,
          0.180392,
          0.192157,
          1.0
        ],
        "metallicFactor": 0.0
      }
    },
    {
      "doubleSided": true,
      "name": "color_40919",
      "pbrMetallicRoughness": {
        "baseColorFactor": [
          0.0,
          0.623529,
          0.843137,
          1.0
        ],
        "metallicFactor": 0.0
      }
    },
    {
      "doubleSided": true,
      "name": "color_9771553",
      "pbrMetallicRoughness": {
        "baseColorFactor": [
          0.584314,
          0.101961,
          0.129412,
          1.0
        ],
        "metallicFactor": 0.0
      }
    }
  ],
  "meshes": [
    {
      "name": "Object_0",
      "primitives": [
        {
          "attributes": {
            "NORMAL": 1,
            "POSITION": 0
          },
          "indices": 2,
          "material": 0,
          "mode": 4
        }
      ]
    },
    {
      "name": "Object_1",
      "primitives": [
        {
          "attributes": {
            "NORMAL": 4,
            "POSITION": 3
          },
          "indices": 5,
          "material": 1,
          "mode": 4
        }
      ]
    },
    {
      "name": "Object_2",
      "primitives": [
        {
          "attributes": {
            "NORMAL": 7,
            "POSITION": 6
          },
          "indices": 8,
          "material": 2,
          "mode": 4
        }
      ]
    },
    {
      "name": "Object_3",
      "primitives": [
        {
          "attributes": {
            "NORMAL": 10,
            "POSITION": 9
          },
          "indices": 11,
          "material": 3,
          "mode": 4
        }
      ]
    }
  ],
  "nodes": [
    {
      "children": [
        1
      ],
      "matrix": [
        1.0,
        0.0,
        0.0,
        0.0,
        0.0,
        -1.0,
        -4.440892098500626e-16,
        0.0,
        0.0,
        4.440892098500626e-16,
        -1.0,
        0.0,
        0.0,
        -38.06403350830078,
        14.936060905456534,
        1.0
      ],
      "name": "Sketchfab_model"
    },
    {
      "children": [
        2,
        3,
        4,
        5
      ],
      "name": "tinker.obj.cleaner.materialmerger.gles"
    },
    {
      "mesh": 0,
      "name": "Object_2"
    },
    {
      "mesh": 1,
      "name": "Object_3"
    },
    {
      "mesh": 2,
      "name": "Object_4"
    },
    {
      "mesh": 3,
      "name": "Object_5"
    }
  ],
  "scene": 0,
  "scenes": [
    {
      "name": "Sketchfab_Scene",
      "nodes": [
        0
      ]
    }
  ]
}
